<?xml version="1.0" standalone="no"?><!DOCTYPE svg PUBLIC "-//W3C//DTD SVG 1.1//EN" "http://www.w3.org/Graphics/SVG/1.1/DTD/svg11.dtd"><svg t="1630478491239" class="icon" viewBox="0 0 1024 1024" version="1.1" xmlns="http://www.w3.org/2000/svg" p-id="4531" width="128" height="128" xmlns:xlink="http://www.w3.org/1999/xlink"><defs><style type="text/css"></style></defs><path d="M716.288 792.704H422.29248a36.38784 36.38784 0 0 0-19.9168 5.888L282.68032 877.056c-20.48 13.41952-48.7424 2.88768-54.13376-20.16256l-8.9088-38.12352a34.68288 34.68288 0 0 0-34.21696-26.05568l0.1792-124.17536c0.09728-67.52768 57.79968-122.23488 128.9472-122.23488h471.82336a34.18624 34.18624 0 0 1 35.04128 33.28v113.34656c0 55.10144-47.06816 99.77344-105.12384 99.77344z" fill="#0077ff" p-id="4532"></path><path d="M810.19904 92.16H401.97632a162.94912 162.94912 0 0 0-161.96608 149.02272h-26.2144A162.98496 162.98496 0 0 0 51.2 404.17792v243.2a162.816 162.816 0 0 0 122.02496 157.87008 7.87968 7.87968 0 0 1 5.79584 7.7824l-0.30208 57.2416a55.808 55.808 0 0 0 82.432 49.664l200.9856-108.544a8.10496 8.10496 0 0 1 3.84512-0.97792h210.59584a162.97984 162.97984 0 0 0 162.60096-162.9952v-243.2a162.98496 162.98496 0 0 0-162.60096-162.9952H309.69344a93.57312 93.57312 0 0 1 92.28288-79.73376h408.22272a93.66016 93.66016 0 0 1 93.44 93.66528V458.752a93.88032 93.88032 0 0 1-21.42208 59.67872 34.61632 34.61632 0 1 0 53.2736 44.22144A163.47648 163.47648 0 0 0 972.8 458.752V255.1552A162.98496 162.98496 0 0 0 810.19904 92.16zM770.048 404.17792v243.2a93.65504 93.65504 0 0 1-93.44 93.66528H465.9968a77.4144 77.4144 0 0 0-36.64896 9.2672l-181.34528 97.97632 0.1792-34.87232A77.09696 77.09696 0 0 0 190.464 738.11968a93.55264 93.55264 0 0 1-70.08256-90.72128v-243.2a93.66016 93.66016 0 0 1 93.44-93.66528h462.79168a93.65504 93.65504 0 0 1 93.43488 93.6448z m-433.99168 128.16384a36.38272 36.38272 0 1 0-36.38272 36.49024 36.42368 36.42368 0 0 0 36.38272-36.49024z m141.75744 0a36.38272 36.38272 0 1 0-36.3776 36.46976 36.42368 36.42368 0 0 0 36.3776-36.46976z m141.76256 0a36.38272 36.38272 0 1 0-36.38272 36.46976 36.4288 36.4288 0 0 0 36.38272-36.46976z" fill="#333333" p-id="4533"></path></svg>